<?xml version="1.0" standalone="no"?>
<!DOCTYPE svg PUBLIC "-//W3C//DTD SVG 20010904//EN"
 "http://www.w3.org/TR/2001/REC-SVG-20010904/DTD/svg10.dtd">
<svg version="1.0" xmlns="http://www.w3.org/2000/svg"
 width="161.000000pt" height="166.000000pt" viewBox="0 0 161.000000 166.000000"
 preserveAspectRatio="xMidYMid meet">

<g transform="translate(0.000000,166.000000) scale(0.100000,-0.100000)"
fill="#000000" stroke="none">
<path d="M220 1616 c-41 -56 -60 -65 -145 -68 l-70 -3 -3 -177 c-1 -98 1 -178
5 -179 5 0 41 -2 82 -3 85 -3 93 -9 111 -89 7 -29 21 -59 32 -67 10 -9 22 -31
24 -50 3 -19 10 -36 15 -38 5 -2 9 -13 9 -25 0 -12 13 -37 28 -55 15 -17 33
-51 40 -75 16 -51 51 -127 52 -109 0 6 10 13 23 13 17 1 18 2 4 6 -9 2 -14 9
-11 15 4 5 15 1 28 -10 31 -30 58 -32 62 -5 3 16 0 21 -10 17 -15 -6 -56 40
-56 62 0 8 -7 14 -15 14 -8 0 -12 6 -9 14 3 7 -2 16 -10 19 -9 4 -13 13 -10
21 6 16 -17 46 -34 46 -5 0 -17 9 -27 20 -10 11 -15 20 -12 20 3 0 2 13 -3 30
-10 36 5 266 18 283 7 8 6 18 -4 31 -7 10 -11 22 -9 26 2 4 -7 12 -20 18 -14
7 -25 20 -25 30 0 10 -4 22 -9 27 -13 14 -25 85 -14 85 5 0 24 14 41 31 18 17
32 28 32 25 0 -4 11 4 25 18 30 30 64 41 177 57 59 8 94 18 108 31 18 17 21
17 26 4 8 -20 38 -21 54 -1 10 12 31 14 99 11 47 -2 88 -5 91 -6 3 -1 44 -1
92 0 76 1 89 -1 108 -20 11 -11 18 -25 15 -30 -4 -6 7 -10 22 -10 20 0 39 -11
62 -36 19 -19 39 -33 47 -30 7 3 15 -2 18 -10 3 -9 10 -13 16 -9 5 3 12 -16
16 -44 4 -29 12 -52 21 -55 11 -5 13 4 10 49 -4 61 10 65 19 4 6 -35 28 -71
23 -38 -4 35 4 40 12 9 16 -59 26 -139 17 -134 -4 3 -8 14 -8 25 0 11 -4 17
-10 14 -5 -3 -10 3 -10 15 0 13 -5 20 -12 17 -7 -2 -12 -15 -11 -28 1 -13 -2
-37 -7 -52 -10 -30 -3 -60 11 -51 5 3 7 10 4 15 -4 5 -2 9 3 9 6 0 13 -11 16
-25 7 -26 20 -32 31 -15 3 6 -2 10 -12 11 -10 0 -13 3 -5 6 6 2 12 12 12 21 1
16 2 16 13 1 17 -23 73 -35 132 -29 l50 5 0 185 0 185 -120 -3 c-66 -2 -128
-5 -137 -8 -12 -3 -18 0 -18 10 0 8 -12 28 -26 45 l-26 31 -513 0 -514 0 -31
-44z m1040 -98 c0 -5 -4 -8 -10 -8 -5 0 -10 10 -10 23 0 18 2 19 10 7 5 -8 10
-18 10 -22z m38 7 c2 -15 1 -16 -6 -7 -5 8 -13 13 -18 12 -5 -1 -10 4 -12 10
-3 7 3 10 14 8 10 -2 20 -12 22 -23z m69 -37 c-3 -7 -5 -2 -5 12 0 14 2 19 5
13 2 -7 2 -19 0 -25z m-1154 2 c-6 -24 -23 -37 -23 -18 0 12 18 38 26 38 1 0
0 -9 -3 -20z m-10 -57 c-7 -3 -13 -14 -13 -26 0 -18 -2 -19 -10 -7 -9 13 -11
13 -20 0 -5 -8 -10 -10 -10 -5 0 21 49 59 60 47 3 -2 -1 -7 -7 -9z m168 -576
c-13 -13 -26 -3 -16 12 3 6 11 8 17 5 6 -4 6 -10 -1 -17z m34 -126 c3 -5 1
-12 -4 -15 -5 -3 -11 1 -15 9 -6 16 9 21 19 6z"/>
<path d="M1282 1440 c0 -14 2 -19 5 -12 2 6 2 18 0 25 -3 6 -5 1 -5 -13z"/>
<path d="M1232 1362 c0 -24 10 -52 27 -77 29 -43 56 -52 56 -20 0 11 6 19 13
18 21 -5 13 22 -15 48 -14 13 -23 18 -19 12 4 -7 2 -13 -3 -13 -16 0 -13 16 4
30 19 16 11 30 -14 23 -10 -3 -22 0 -25 6 -14 22 -25 10 -24 -27z"/>
<path d="M1000 1223 c-8 -2 -22 -7 -30 -10 -8 -4 -18 -6 -22 -5 -10 2 -32 -28
-25 -35 7 -6 126 34 142 48 10 10 -38 11 -65 2z"/>
<path d="M1118 1223 c6 -2 18 -2 25 0 6 3 1 5 -13 5 -14 0 -19 -2 -12 -5z"/>
<path d="M1327 1173 c13 -35 19 -41 30 -32 7 7 16 9 20 5 3 -3 1 -6 -6 -6 -7
0 -9 -5 -5 -11 4 -8 9 -7 15 2 11 17 11 21 0 38 -8 12 -12 12 -25 2 -9 -8 -16
-9 -16 -4 0 5 -7 18 -15 29 -12 15 -11 11 2 -23z"/>
<path d="M535 1161 c-9 -16 10 -21 97 -28 l83 -6 -19 22 c-16 18 -30 21 -87
21 -37 0 -70 -4 -74 -9z"/>
<path d="M974 1159 c-4 -7 4 -10 22 -8 16 2 35 0 42 -4 6 -5 17 -5 23 -1 6 3
15 0 20 -7 6 -10 9 -11 9 -1 0 9 12 11 43 6 39 -5 41 -4 23 10 -23 19 -171 23
-182 5z"/>
<path d="M465 1151 c3 -5 -8 -12 -24 -16 -42 -9 -105 -75 -72 -75 23 0 61 21
61 34 0 7 14 19 30 26 33 14 38 25 14 34 -8 3 -13 2 -9 -3z"/>
<path d="M565 1109 c-54 -13 -94 -31 -99 -46 -9 -22 11 -23 38 -2 22 17 29 19
42 9 12 -11 13 -10 8 6 -6 16 -5 17 7 7 16 -16 39 -17 39 -2 0 5 -4 7 -10 4
-5 -3 -10 -1 -10 4 0 6 11 12 25 12 37 2 43 3 51 12 10 9 -41 7 -91 -4z"/>
<path d="M1350 1096 c0 -2 7 -17 15 -32 9 -18 15 -23 15 -12 0 9 -5 20 -10 23
-6 4 -8 11 -5 16 4 5 1 9 -4 9 -6 0 -11 -2 -11 -4z"/>
<path d="M160 1016 c0 -2 7 -7 16 -10 8 -3 12 -2 9 4 -6 10 -25 14 -25 6z"/>
<path d="M118 943 c6 -2 18 -2 25 0 6 3 1 5 -13 5 -14 0 -19 -2 -12 -5z"/>
<path d="M905 880 c-8 -13 15 -13 35 0 12 8 11 10 -7 10 -12 0 -25 -4 -28 -10z"/>
<path d="M745 872 c6 -6 30 -14 55 -17 50 -6 30 7 -30 20 -24 5 -32 4 -25 -3z"/>
<path d="M1421 858 c-26 -9 -28 -14 -36 -82 l-8 -58 39 6 c32 5 51 0 108 -29
38 -19 73 -32 77 -29 15 9 11 194 -3 196 -34 5 -161 2 -177 -4z"/>
<path d="M17 839 c-12 -16 -14 -57 -13 -194 l1 -173 38 -12 c48 -14 118 -53
174 -95 l42 -32 -27 -25 c-39 -36 -129 -93 -184 -117 l-48 -20 0 -86 0 -85
215 0 c118 0 215 4 215 8 0 5 -10 35 -21 68 -12 32 -30 99 -40 149 l-18 90 29
25 c36 32 72 103 63 126 -4 10 -2 15 3 11 6 -4 9 7 7 26 l-4 32 18 -23 c23
-29 190 -113 209 -105 9 3 14 0 12 -7 -2 -7 10 -16 25 -21 16 -4 35 -13 43
-20 9 -7 14 -8 14 -1 0 11 60 23 124 25 20 1 36 4 36 8 0 4 24 10 53 14 28 4
57 11 62 15 6 4 34 16 64 26 29 10 56 25 58 31 3 7 14 13 24 13 10 0 19 6 19
13 0 6 23 34 50 62 52 52 71 89 22 42 -15 -15 -37 -27 -48 -27 -11 0 -25 -5
-32 -12 -9 -9 -12 -8 -12 5 0 9 -5 17 -11 17 -5 0 -7 -5 -4 -10 3 -5 1 -10 -5
-10 -6 0 -9 -8 -6 -17 7 -22 -67 -78 -86 -67 -7 4 -10 3 -5 -1 9 -10 -54 -33
-108 -39 -22 -2 -48 -7 -57 -11 -10 -4 -27 0 -40 9 -25 18 -42 21 -33 6 10
-16 -18 -12 -45 7 -14 10 -34 19 -44 21 -11 1 -24 8 -29 15 -7 9 -10 9 -14 0
-7 -18 -23 -16 -23 3 0 8 -4 13 -9 10 -5 -3 -16 5 -25 19 -9 14 -24 25 -32 25
-13 0 -14 3 -5 14 9 11 9 16 0 22 -7 4 -15 2 -17 -5 -3 -9 -7 -9 -18 0 -11 9
-18 8 -33 -5 -16 -15 -19 -15 -24 -1 -4 8 -2 15 4 15 6 0 9 6 6 13 -2 6 -10
11 -16 9 -15 -3 -14 15 2 21 7 3 6 6 -5 6 -9 1 -20 -8 -23 -20 -4 -11 -12 -18
-18 -16 -13 5 -10 40 4 45 5 2 9 8 9 13 0 18 -40 -11 -40 -29 -1 -16 -2 -15
-11 1 -8 13 -7 22 1 33 14 16 6 18 -20 4 -15 -8 -22 -5 -35 18 -11 18 -34 34
-64 45 -55 19 -101 52 -101 72 0 31 -31 46 -91 44 -33 -1 -62 1 -66 4 -11 12
-21 8 -36 -14z"/>
<path d="M938 783 c6 -2 18 -2 25 0 6 3 1 5 -13 5 -14 0 -19 -2 -12 -5z"/>
<path d="M1028 703 c7 -3 16 -2 19 1 4 3 -2 6 -13 5 -11 0 -14 -3 -6 -6z"/>
<path d="M707 683 c-15 -2 -25 -9 -22 -14 9 -14 39 -11 61 6 20 15 16 16 -39
8z"/>
<path d="M1359 578 c-1 -29 0 -63 1 -75 2 -27 58 -133 71 -133 13 0 88 -69
100 -92 26 -49 40 -134 34 -206 l-7 -72 26 0 26 0 0 213 0 213 -52 -6 c-29 -4
-58 -6 -63 -4 -11 4 -65 86 -65 98 0 16 -52 116 -61 116 -5 0 -9 -24 -10 -52z"/>
<path d="M1505 440 c-3 -5 3 -10 14 -10 11 0 23 5 26 10 3 6 -3 10 -14 10 -11
0 -23 -4 -26 -10z"/>
<path d="M995 21 c-6 -5 -26 -11 -45 -14 -19 -2 3 -5 49 -5 77 -2 83 -1 65 13
-22 16 -56 19 -69 6z"/>
</g>
</svg>
